<?xml version="1.0"?>
<svg width="20" height="28" xmlns="http://www.w3.org/2000/svg">
 <!-- Created with Method Draw - http://github.com/duopixel/Method-Draw/ -->
 <defs>
  <linearGradient id="svg_11">
   <stop offset="0" stop-opacity="0.996094" stop-color="#ea2020"/>
   <stop offset="1" stop-opacity="0.996094" stop-color="#f48b8b"/>
  </linearGradient>
 </defs>
 <g>
  <title>background</title>
  <rect fill="none" id="canvas_background" height="30" width="22" y="-1" x="-1"/>
  <g display="none" id="canvasGrid">
   <rect fill="url(#gridpattern)" stroke-width="0" y="0" x="0" height="100%" width="100%" id="svg_1"/>
  </g>
 </g>
 <g>
  <title>Layer 1</title>
  <polyline stroke-linecap="round" id="svg_4" points="-17.848293811165217,5.091764948814479 -17.848293811165217,5.091764948814479 -17.784640565948212,5.155418194031476 " stroke-width="0.25" stroke="#fff" fill="none"/>
  <path id="svg_6" d="m-33.528217,-0.283257c-0.005943,-0.022271 -0.004414,-0.092373 -0.004719,-0.142239c-0.000069,-0.193852 -0.000015,-0.387708 -0.000034,-0.581562c0.010624,-0.001586 0.02124,-0.003805 0.031864,-0.003502c-0.000011,0.222627 0.00029,0.445305 -0.000072,0.667892c-0.000286,0.059669 -0.006931,0.06732 -0.011578,0.061548c-0.005157,0.000019 -0.010311,-0.000779 -0.015461,-0.002137zm-0.015312,-0.580178c-0.003361,-0.003619 -0.006145,-0.088088 -0.002197,-0.087884c0.003113,-0.000406 0.006222,-0.000813 0.009335,-0.001219c0.0005,0.041035 -0.000801,0.099467 -0.006172,0.091095l-0.000965,-0.001991l0,0l0,0zm0.049789,-0.000033c-0.003483,-0.004364 -0.005363,-0.077041 -0.002827,-0.087768c0.003323,-0.000434 0.006645,-0.000869 0.009972,-0.001303c0.000504,0.041048 -0.000801,0.099514 -0.00618,0.091084l-0.000965,-0.002013c0,0 0,0 0,0l0,0zm-0.053658,-0.282452c0.000271,-0.067884 -0.000542,-0.137186 0.000843,-0.203992c0.002026,-0.052018 0.006943,-0.098854 0.01263,-0.1032c0.011768,0.000996 0.023567,-0.005024 0.035313,0.002713c0.007004,0.015485 0.012589,0.084849 0.011925,0.157888c0.000164,0.108505 0.00008,0.217032 0.000118,0.325547c-0.003696,0.000475 -0.007397,0.000951 -0.011093,0.001426c0,-0.097669 0,-0.195338 0,-0.293007c-0.002171,-0.025441 -0.004017,0.008746 -0.003269,0.030499c-0.000008,0.065889 -0.000015,0.131779 -0.000027,0.197668c-0.010712,0 -0.021427,0 -0.032143,0c-0.000088,-0.07634 -0.000175,-0.152681 -0.000263,-0.229022c-0.002102,-0.024091 -0.003578,0.008924 -0.002911,0.028953c-0.000034,0.087827 -0.000072,0.175655 -0.000107,0.263482c-0.0037,0.000476 -0.007401,0.000951 -0.011105,0.001427c0.000031,-0.060128 0.000057,-0.120256 0.000088,-0.180383l0,0zm0.02813,-0.353646c-0.005703,-0.010322 -0.010105,-0.063464 -0.010242,-0.121343c0.008244,0 0.016491,0 0.024734,0c0.00029,0.075342 -0.007221,0.13511 -0.014492,0.121343zm-0.012779,-0.168903c0.001404,-0.014099 0.002609,-0.032997 0.004871,-0.026422c0.007465,0 0.014935,0 0.0224,0c-0.00024,0.016279 0.000454,0.041945 -0.00032,0.052845c-0.009857,0 -0.019718,0 -0.029575,0c0.000874,-0.008808 0.001751,-0.017615 0.002625,-0.026422l0,0zm0.009418,-0.046729c-0.002304,-0.000306 -0.004608,-0.000612 -0.006916,-0.000918c0.00024,-0.016244 -0.000454,-0.041892 0.00032,-0.052756c0.008152,0 0.0163,0 0.024448,0c-0.00024,0.016279 0.000454,0.041943 -0.00032,0.052846c-0.005844,-0.000385 -0.011684,0.002258 -0.017532,0.000829zm0.012306,1.433476c-0.003265,-0.01125 -0.005676,-0.045571 -0.005032,-0.08039c-0.000114,-0.165668 0.000153,-0.33144 -0.000309,-0.497025c-0.003754,-0.042068 -0.002655,0.059883 -0.0028,0.083176c-0.000202,0.149252 0.000328,0.298869 -0.000397,0.447889c-0.000511,0.03408 -0.007442,0.051984 -0.001179,0.045819c0.003239,0.000411 0.006477,0.001839 0.009716,0.00053l0,0z" fill-opacity="null" stroke-opacity="null" stroke-width="0.25" stroke="#000" fill="#20b4ea"/>
  <path stroke="#000" id="svg_8" d="m19.480711,6.056501c0.130156,-0.504522 0.141741,-1.330688 0.026299,-1.838093l-0.382145,-1.675035c-0.115484,-0.507271 -0.628895,-0.99509 -1.141638,-1.08389l-3.521667,-0.60829c-0.512476,-0.0888 -1.351624,-0.08605 -1.863402,0.006507l-3.814668,0.686966c-0.51273,0.092414 -1.351662,0.101742 -1.866274,0.02169l-3.732483,-0.581749c0.004773,0.018079 0.013023,0.033988 0.017069,0.051992l2.554649,12.136971l1.169022,0.201948c0.51289,0.088818 1.351027,0.085255 1.863857,-0.006395l3.813579,-0.687783c0.511621,-0.091696 1.351681,-0.100998 1.866261,-0.020962l4.094983,0.63875c0.514513,0.080048 0.856976,-0.272064 0.763201,-0.784432l-0.458681,-2.482494c-0.094517,-0.511752 -0.065294,-1.34239 0.064213,-1.846828l0.547827,-2.128873l0,0zm-18.324978,-5.554576c-0.51183,0.10818 -0.839184,0.608219 -0.731275,1.119246l5.45148,25.896862l1.932203,0l-5.531576,-26.284452c-0.109538,-0.513055 -0.610172,-0.839978 -1.120833,-0.731656l0,0z" stroke-opacity="null" stroke-width="0.25" fill="url(#svg_11)"/>
 </g>
</svg>