<?xml version="1.0"?>
<svg width="20" height="38" xmlns="http://www.w3.org/2000/svg">
 <!-- Created with Method Draw - http://github.com/duopixel/Method-Draw/ -->

 <g>
  <title>background</title>
  <rect fill="none" id="canvas_background" height="40" width="22" y="-1" x="-1"/>
  <g display="none" id="canvasGrid">
   <rect fill="url(#gridpattern)" stroke-width="0" y="0" x="0" height="100%" width="100%" id="svg_1"/>
  </g>
 </g>
 <g>
  <title>Layer 1</title>
  <path stroke="#000" id="svg_3" d="m6.960098,37.506153c-1.608814,-0.556248 -1.194777,-2.307144 -1.276748,-3.552639c-0.018889,-4.841711 -0.00499,-9.683546 -0.009146,-14.525307c2.875161,-0.039623 5.750347,-0.095022 8.625984,-0.087465c-0.003123,5.560411 0.07847,11.12211 -0.019609,16.681551c-0.07703,1.490288 -1.876209,1.681374 -3.134802,1.53722c-1.395409,0.000496 -2.79077,-0.019451 -4.185678,-0.05336l-0.000001,0zm-4.144787,-14.490757c-0.91046,-0.090399 -1.663961,-2.200117 -0.594555,-2.195045c0.842034,-0.010168 1.684049,-0.020308 2.526136,-0.030464c0.135914,1.0249 -0.215944,2.484352 -1.670972,2.27523l-0.260608,-0.049721l0,0l0,0l-0.000001,0zm13.479064,-0.000854c-0.942484,-0.108963 -1.451558,-1.924192 -0.765621,-2.192114c0.899906,-0.010838 1.799839,-0.021687 2.699768,-0.032541c0.136169,1.025223 -0.216599,2.485506 -1.672207,2.27495l-0.261938,-0.050264c0,0 0,0 0,0l0,-0.000031l-0.000002,0zm-14.526778,-7.054627c0.074153,-1.695496 -0.146556,-3.426426 0.228231,-5.094984c0.548783,-1.299212 1.879934,-2.469031 3.419382,-2.577544c3.186305,0.024872 6.381004,-0.125487 9.560523,0.067755c1.895666,0.386744 3.408255,2.11921 3.228271,3.943457c0.043962,2.710073 0.021545,5.420689 0.032415,8.131014c-1.001278,0.011887 -2.002563,0.02375 -3.003829,0.035631c0,-2.439413 0,-4.878845 0,-7.318252c-0.586981,-0.635448 -1.08693,0.218434 -0.884784,0.761725c-0.002269,1.6457 -0.004571,3.291389 -0.006862,4.93709c-2.90081,0 -5.801603,0 -8.702449,0c-0.023772,-1.90674 -0.047541,-3.813452 -0.071306,-5.72015c-0.568755,-0.60172 -0.968545,0.222857 -0.787806,0.723113c-0.009594,2.19362 -0.019164,4.387227 -0.028756,6.58084c-1.00205,0.011889 -2.004102,0.023767 -3.006119,0.035645c0.00768,-1.501787 0.015369,-3.003563 0.023086,-4.505339l0,0l0.000001,-0.000001l0.000001,0zm7.615797,-8.832814c-1.54346,-0.257795 -2.736169,-1.585103 -2.772937,-3.030737c2.232069,0 4.464121,0 6.696195,0c0.078991,1.881773 -1.955252,3.374578 -3.923256,3.030737l-0.000001,0l-0.000001,0zm-3.459566,-4.218609c0.380149,-0.35213 0.706548,-0.824144 1.318534,-0.659927c2.02141,0 4.042848,0 6.064288,0c-0.065032,0.40657 0.123405,1.047637 -0.086838,1.31986c-2.668875,0 -5.337727,0 -8.006612,0c0.236884,-0.219973 0.473761,-0.439942 0.710628,-0.659933l0,0zm2.550117,-1.167128c-0.624145,-0.00764 -1.2483,-0.015286 -1.872458,-0.022932c0.06519,-0.405706 -0.123544,-1.046314 0.086837,-1.317668c2.206101,0 4.412194,0 6.618325,0c-0.06502,0.406605 0.123406,1.047581 -0.08683,1.319899c-1.582302,-0.009612 -3.163527,0.056399 -4.745872,0.020701l-0.000001,0zm3.330978,35.803093c-0.884107,-0.280991 -1.536035,-1.138195 -1.361932,-2.007881c-0.03128,-4.137733 0.041327,-8.278151 -0.084174,-12.413858c-1.016274,-1.05072 -0.718759,1.49568 -0.757698,2.077454c-0.054909,3.727808 0.088992,7.46467 -0.106729,11.186632c-0.139314,0.851242 -2.0154,1.298393 -0.319854,1.144444c0.876498,0.010239 1.754067,0.045898 2.630384,0.01321l0,0l0.000001,0l0.000001,0z" fill-opacity="null" stroke-opacity="null" stroke-width="0.25" fill="#20b4ea"/>
  <polyline stroke-linecap="round" id="svg_4" points="-17.848293811165217,5.091764948814479 -17.848293811165217,5.091764948814479 -17.784640565948212,5.155418194031476 " stroke-width="0.25" stroke="#fff" fill="none"/>
 </g>
</svg>